<svg xmlns="http://www.w3.org/2000/svg" width="7" height="23" viewBox="0 0 7 23"><defs><mask id="secwb" width="2" height="2" x="-1" y="-1"><path fill="#fff" d="M1 1h6v9H1z"/><path d="M1.674 1.13a.35.35 0 0 0-.509 0 .39.39 0 0 0 0 .532L5.19 5.518l-4.025 3.86a.39.39 0 0 0 0 .532.35.35 0 0 0 .51 0l4.282-4.103a.388.388 0 0 0 .102-.289.384.384 0 0 0-.102-.285z"/></mask><filter id="secwa" width="102" height="118" x="-47" y="-47" filterUnits="userSpaceOnUse"><feOffset dy="13" in="SourceGraphic" result="FeOffset1037Out"/><feGaussianBlur in="FeOffset1037Out" result="FeGaussianBlur1038Out" stdDeviation="15.2 15.2"/></filter></defs><g><g><g filter="url(#secwa)"><path fill="none" d="M1.674 1.13a.35.35 0 0 0-.509 0 .39.39 0 0 0 0 .532L5.19 5.518l-4.025 3.86a.39.39 0 0 0 0 .532.35.35 0 0 0 .51 0l4.282-4.103a.388.388 0 0 0 .102-.289.384.384 0 0 0-.102-.285z" mask="url(&quot;#secwb&quot;)"/><path fill-opacity=".15" d="M1.674 1.13a.35.35 0 0 0-.509 0 .39.39 0 0 0 0 .532L5.19 5.518l-4.025 3.86a.39.39 0 0 0 0 .532.35.35 0 0 0 .51 0l4.282-4.103a.388.388 0 0 0 .102-.289.384.384 0 0 0-.102-.285z"/></g><path fill="#7e919a" d="M1.674 1.13a.35.35 0 0 0-.509 0 .39.39 0 0 0 0 .532L5.19 5.518l-4.025 3.86a.39.39 0 0 0 0 .532.35.35 0 0 0 .51 0l4.282-4.103a.388.388 0 0 0 .102-.289.384.384 0 0 0-.102-.285z"/><path fill="none" stroke="#7e919a" stroke-miterlimit="20" stroke-width=".5" d="M1.674 1.13a.35.35 0 0 0-.509 0 .39.39 0 0 0 0 .532L5.19 5.518v0l-4.025 3.86a.39.39 0 0 0 0 .532.35.35 0 0 0 .51 0l4.282-4.103a.388.388 0 0 0 .102-.289.384.384 0 0 0-.102-.285z"/></g></g></svg>