<?xml version="1.0" encoding="UTF-8"?>
<svg id="SVGDoc" width="72" height="48" xmlns="http://www.w3.org/2000/svg" version="1.1" xmlns:xlink="http://www.w3.org/1999/xlink" xmlns:avocode="https://avocode.com/" viewBox="0 0 72 48"><defs></defs><desc>Generated with Avocode.</desc><g><g><title>asset/logo</title><g><title>Fill 1</title><path d="M71.84236,37.116v0h-71.64236v0v-0.736v0h71.64236v0z" fill="#231f20" fill-opacity="1"></path></g><g><title>Fill 2</title><path d="M71.84236,47.99577v0h-71.64236v0v-0.73577v0h71.64236v0z" fill="#231f20" fill-opacity="1"></path></g><g><title>Fill 3</title><path d="M36.0477,0.05c13.71938,0 24.90777,7.47874 24.90777,16.65018c0,9.16872 -11.18839,16.64892 -24.90777,16.64892c-13.71838,0 -24.9077,-7.4802 -24.9077,-16.64892c0,-9.17144 11.18905,-16.65002 24.9077,-16.65018" fill="#231f20" fill-opacity="1"></path></g><g><title>Fill 4</title><path d="M36.04315,1.37c13.08156,0 23.75144,6.88606 23.75144,15.33042c0,8.44396 -10.66988,15.32862 -23.75144,15.32862c-13.084,0 -23.75315,-6.88466 -23.75315,-15.32862c0.00011,-8.44436 10.66885,-15.33042 23.75315,-15.33042" fill="#fefefe" fill-opacity="1"></path></g><g><title>Fill 5</title><path d="M36.04487,2.58c12.3179,0 22.36639,6.3442 22.36639,14.12367c0.00017,7.77726 -10.04849,14.1216 -22.36639,14.1216c-12.3171,0 -22.36487,-6.34434 -22.36487,-14.1216c0.00017,-7.77947 10.04749,-14.12367 22.36487,-14.12367" fill="#231f20" fill-opacity="1"></path></g><g><title>Fill 6</title><path d="M28.5877,22.80388v0h-4.5277v0v-6.89843c0,-1.56836 0.56228,-2.96119 1.61118,-3.87969c1.07481,-0.9392 2.44383,-1.44576 3.90011,-1.44576c1.8096,0 3.14801,0.74419 4.05188,2.10456c1.18086,-1.36037 2.63835,-2.10456 4.25141,-2.10456c0.98348,0 2.00589,0.3294 2.79527,0.74419c0.86533,0.49426 1.60575,1.32162 2.08474,2.06272c0.50681,0.78722 0.82454,1.77542 0.82454,2.60149l0.00018,6.81548v0h-4.52397v0v-6.91772c0,-0.41372 -0.20997,-0.92843 -0.47315,-1.07497c-0.32965,-0.1822 -0.78733,-0.41192 -1.14054,-0.41192c-0.90537,0 -1.45702,0.74311 -1.45702,1.85768l0.00029,6.54693v0h-4.52606v0v-6.7533c0,-0.37147 -0.20726,-0.89911 -0.43382,-1.15683c-0.24408,-0.27944 -0.66831,-0.49448 -1.02184,-0.49448c-0.35481,0 -0.82809,0.2471 -0.98434,0.41192c-0.27671,0.28933 -0.43116,0.78559 -0.43116,1.32166z" fill="#fefefe" fill-opacity="1"></path></g><g><title>Fill 7</title><path d="M54.18093,12.18427v0v3.02562c-2.32936,-1.54567 -4.84558,-1.75914 -5.39549,-0.6156c-0.61962,1.29246 6.55548,-0.01249 5.52639,5.18953c-0.62846,2.59607 -5.50845,4.10808 -9.22863,1.85294l0.00017,-3.17864c3.16201,1.44153 4.61312,1.28184 4.80659,0.5754c0.38763,-1.41073 -5.19793,0.26653 -5.06772,-4.50073c0.58565,-4.3974 6.90969,-4.81251 9.35869,-2.34852" fill="#fefefe" fill-opacity="1"></path></g><g><title>Fill 8</title><path d="M22.07268,10.62v0v12.18639v0h-4.17268v0v-12.18639v0z" fill="#fefefe" fill-opacity="1"></path></g><g><title>Fill 9</title><path d="M69.69745,41.25485c0.28363,-0.2197 0.61933,-0.33048 1.00714,-0.33048c0.4318,0 0.77384,0.07074 1.03115,0.21355c-0.08846,0.19607 -0.15828,0.3939 -0.20769,0.5931h-0.08873c-0.18427,-0.362 -0.44706,-0.54285 -0.78818,-0.54285c-0.1909,0 -0.3617,0.04591 -0.51096,0.13873c-0.14984,0.09552 -0.23528,0.22866 -0.2604,0.40412c0.00017,0.06666 -0.00469,0.12478 -0.01727,0.17038c0.00637,0.20867 0.08861,0.37148 0.25157,0.4888c0.1599,0.11487 0.40893,0.22402 0.73726,0.32735c0.33199,0.10131 0.50336,0.154 0.5159,0.15982c0.41277,0.18656 0.61958,0.48025 0.61958,0.88281c0.00034,0.37257 -0.14601,0.68664 -0.43947,0.93783c-0.2923,0.24983 -0.69678,0.38719 -1.20979,0.40419c-0.15468,0 -0.3438,-0.02756 -0.56508,-0.07849c-0.21835,-0.05065 -0.40582,-0.11771 -0.55536,-0.20159c0.02008,-0.06261 0.04944,-0.15509 0.09078,-0.27268c0.04117,-0.11826 0.07201,-0.23529 0.0896,-0.34677h0.0632c0.13626,0.19647 0.30173,0.35151 0.49041,0.46072c0.1925,0.11172 0.38097,0.16576 0.56617,0.16576c0.25729,-0.00543 0.46248,-0.08554 0.61893,-0.23622c0.15368,-0.15495 0.23103,-0.32561 0.23103,-0.51937c0.00031,-0.23149 -0.06924,-0.40108 -0.21595,-0.51337c-0.14316,-0.11014 -0.35193,-0.19947 -0.63401,-0.26775c-0.32246,-0.08405 -0.55968,-0.16046 -0.71041,-0.22541c-0.15459,-0.06324 -0.28271,-0.17039 -0.38752,-0.31312c-0.10213,-0.14348 -0.15279,-0.35015 -0.14689,-0.62414c0,-0.36129 0.13977,-0.65468 0.42499,-0.87492zM65.79782,42.12977c0,-0.36129 0.14285,-0.65468 0.42496,-0.87492c0.28328,-0.2197 0.61657,-0.33048 1.00418,-0.33048c0.42933,0 0.77279,0.07074 1.02875,0.21355c-0.09238,0.19607 -0.16,0.3939 -0.20723,0.5931h-0.08916c-0.18447,-0.362 -0.4467,-0.54285 -0.78682,-0.54285c-0.18987,0 -0.35885,0.04591 -0.50638,0.13873c-0.14993,0.09552 -0.23566,0.22866 -0.2586,0.40412c0.00013,0.06666 -0.00777,0.12478 -0.02002,0.17038c0.00705,0.20867 0.09094,0.37148 0.25035,0.4888c0.16211,0.11487 0.40493,0.22402 0.73739,0.32735c0.32948,0.10131 0.50056,0.154 0.5128,0.15982c0.41078,0.18656 0.61583,0.48025 0.61583,0.88281c0.00013,0.37257 -0.14695,0.68664 -0.43684,0.93783c-0.29218,0.24983 -0.69384,0.38719 -1.20469,0.40419c-0.15461,0 -0.34288,-0.02756 -0.56306,-0.07849c-0.22121,-0.05065 -0.4054,-0.11771 -0.55235,-0.20159c0.01615,-0.06261 0.04544,-0.15509 0.08726,-0.27268c0.04306,-0.11826 0.07072,-0.23529 0.09014,-0.34677h0.06121c0.13781,0.19647 0.30048,0.35151 0.49291,0.46072c0.18869,0.11172 0.37671,0.16576 0.56051,0.16576c0.25742,-0.00543 0.46219,-0.08554 0.61734,-0.23622c0.15597,-0.15495 0.23174,-0.32561 0.23174,-0.51937c0.0001,-0.23149 -0.07151,-0.40108 -0.21421,-0.51337c-0.14236,-0.11014 -0.35537,-0.19947 -0.63487,-0.26775c-0.32193,-0.08405 -0.55848,-0.16046 -0.70965,-0.22541c-0.15141,-0.06324 -0.2792,-0.17039 -0.38422,-0.31312c-0.10404,-0.14348 -0.15272,-0.35015 -0.14726,-0.62414zM64.38028,42.66446c0,-0.98439 -0.37192,-1.48214 -1.12154,-1.49396c-0.405,0 -0.71279,0.15089 -0.91757,0.44941c-0.20513,0.3005 -0.3295,0.64798 -0.36316,1.04455zM61.19254,43.0123c0.0175,-0.70684 0.22443,-1.23501 0.6161,-1.58719c0.39405,-0.35043 0.87849,-0.51732 1.4501,-0.50075c0.71041,0.00722 1.20075,0.23393 1.46881,0.68434c0.26928,0.4501 0.38537,0.91127 0.3476,1.38787c-0.56997,-0.01181 -1.6024,-0.01793 -3.09509,-0.01793c-0.04825,0.48842 0.07135,0.90075 0.357,1.24413c0.28801,0.34132 0.69266,0.51392 1.21779,0.51392c0.4166,0 0.85273,-0.19675 1.30573,-0.58671l-0.01563,0.43206c-0.48551,0.34584 -0.99084,0.52016 -1.52204,0.52016c-0.69089,0 -1.22252,-0.20393 -1.58441,-0.61087c-0.36399,-0.40938 -0.54625,-0.90021 -0.54595,-1.47903zM56.80139,42.99657c0,-0.61835 0.20338,-1.11707 0.61165,-1.49979c0.40775,-0.38033 0.98605,-0.57242 1.73307,-0.57242c0.47224,-0.01086 0.93598,0.09926 1.39506,0.33048l-0.20409,0.56293h-0.07137c-0.27005,-0.40832 -0.64745,-0.61289 -1.13669,-0.61289c-0.49114,0 -0.86855,0.17064 -1.13817,0.51256c-0.26785,0.34497 -0.40323,0.75368 -0.40323,1.22578c0.00017,0.5389 0.14839,0.98313 0.44703,1.33495c0.29763,0.35015 0.69997,0.52557 1.19967,0.52557c0.24642,0 0.45532,-0.04222 0.62799,-0.13089c0.17357,-0.08811 0.36856,-0.22946 0.58892,-0.42089l0.05501,0.01832l-0.03515,0.39674c-0.4415,0.28938 -0.90228,0.43517 -1.37836,0.43517c-0.45959,0 -0.86456,-0.08838 -1.21365,-0.26312c-0.34896,-0.17704 -0.61649,-0.42459 -0.80222,-0.74382c-0.18421,-0.31921 -0.27561,-0.68522 -0.27548,-1.09868zM52.33495,42.99657c0,-0.61835 0.20689,-1.11707 0.61522,-1.49979c0.4127,-0.38033 0.99226,-0.57242 1.73697,-0.57242c0.47351,-0.01086 0.94199,0.09926 1.4019,0.33048l-0.20897,0.56293h-0.07008c-0.26826,-0.40832 -0.64962,-0.61289 -1.14089,-0.61289c-0.4886,0 -0.86938,0.17064 -1.13828,0.51256c-0.2697,0.34497 -0.40455,0.75368 -0.40455,1.22578c0.00013,0.5389 0.15011,0.98313 0.4503,1.33495c0.29814,0.35015 0.69934,0.52557 1.2014,0.52557c0.24558,0 0.45424,-0.04222 0.62761,-0.13089c0.17431,-0.08811 0.37233,-0.22946 0.59443,-0.42089l0.05179,0.01832l-0.03284,0.39674c-0.44514,0.28938 -0.90636,0.43517 -1.38403,0.43517c-0.46237,0 -0.8654,-0.08838 -1.21838,-0.26312c-0.34768,-0.17704 -0.61637,-0.42459 -0.80135,-0.74382c-0.18516,-0.31921 -0.28036,-0.68522 -0.28025,-1.09868zM47.60432,43.58479v-2.61932c0.06092,0.00816 0.11712,0.01193 0.16549,0.01358c0.05005,0.00242 0.10648,0.01014 0.16771,0.02276c0.08332,-0.01263 0.15015,-0.02034 0.20475,-0.02276c0.05633,-0.00165 0.11503,-0.00542 0.17996,-0.01358l0.00011,2.38946c0,0.37873 0.08453,0.69311 0.25475,0.94474c0.16961,0.25064 0.45162,0.3774 0.8471,0.3774c0.41548,0 0.7019,-0.13424 0.85782,-0.40443c0.15683,-0.26767 0.23188,-0.57869 0.23188,-0.93326l0.00016,-2.37391c0.07965,0 0.18907,0.01292 0.3329,0.03634c0.17938,-0.02342 0.30799,-0.03634 0.38467,-0.03634l0.00011,4.05728c-0.10824,-0.01018 -0.18228,-0.01845 -0.22061,-0.02048c-0.03662,-0.0027 -0.08748,-0.00706 -0.14767,-0.01216c-0.05267,0.0051 -0.09746,0.00946 -0.1345,0.01216c-0.03434,0.00204 -0.10713,0.01031 -0.21506,0.02048l0.00016,-0.72712c-0.15975,0.26654 -0.35078,0.45946 -0.56727,0.58326c-0.2183,0.12517 -0.49576,0.19637 -0.83841,0.21333c-0.6019,0.02206 -1.00271,-0.14004 -1.20313,-0.48761c-0.20048,-0.34728 -0.30104,-0.68714 -0.30091,-1.01982zM43.09759,40.67308c0.0239,-0.55094 0.23141,-0.95377 0.62238,-1.2074c0.39149,-0.25707 0.84077,-0.38274 1.34574,-0.38274c0.25831,0 0.50508,0.04123 0.74562,0.12295c0.23819,0.08202 0.42297,0.17937 0.55386,0.29458c-0.03321,0.07182 -0.11978,0.30465 -0.24887,0.69662h-0.08136c-0.07203,-0.18797 -0.1999,-0.36054 -0.38733,-0.51516c-0.18501,-0.15532 -0.42878,-0.23327 -0.73379,-0.23327c-0.32068,0 -0.58719,0.09469 -0.79987,0.28535c-0.2124,0.18797 -0.31858,0.42118 -0.31858,0.69182c0.00014,0.48841 0.27889,0.84785 0.83306,1.08148l0.93139,0.36462c0.3407,0.12294 0.59999,0.29826 0.77877,0.51901c0.17803,0.21921 0.26786,0.51718 0.26786,0.89174c0,0.31294 -0.09116,0.6128 -0.27422,0.90603c-0.1817,0.2928 -0.44306,0.52538 -0.7869,0.70151c-0.34319,0.1753 -0.73948,0.25935 -1.19513,0.25565c-0.27345,-0.00544 -0.53554,-0.05587 -0.79143,-0.14945c-0.25401,-0.09505 -0.46138,-0.2119 -0.62227,-0.35208c0.0838,-0.22103 0.14085,-0.4785 0.16946,-0.7668h0.08893c0.22803,0.35847 0.45278,0.59107 0.67037,0.70273c0.22506,0.1103 0.46342,0.17678 0.71948,0.19858c0.35118,0.02308 0.65838,-0.08828 0.91725,-0.33882c0.25844,-0.24953 0.38894,-0.54276 0.38894,-0.87613c0.00032,-0.51109 -0.29221,-0.88089 -0.87716,-1.11384l-0.88836,-0.34789c-0.71533,-0.27349 -1.05853,-0.75015 -1.02786,-1.42909zM37.79537,45.03257v-4.0671c0.10222,0 0.20658,0.01294 0.31358,0.03642c0.21676,-0.02348 0.34947,-0.03642 0.40224,-0.03642l0.00013,0.85231c0.10831,-0.21044 0.27247,-0.4121 0.48972,-0.60583c0.21766,-0.19131 0.44762,-0.28758 0.68565,-0.28758c0.10848,0 0.20011,0.00924 0.28049,0.02617l-0.11927,0.71153c-0.12544,-0.08394 -0.26491,-0.1251 -0.42083,-0.1251c-0.30398,0 -0.53451,0.10635 -0.6864,0.3222c-0.15044,0.21319 -0.2295,0.47699 -0.2295,0.78943l0.00013,2.38397c-0.10697,-0.03272 -0.22962,-0.0493 -0.36823,-0.0493c-0.12342,0 -0.24236,0.01658 -0.34772,0.0493zM33.25155,43.08876c0,0.42484 0.09926,0.81547 0.2977,1.17654c0.19963,0.35896 0.55157,0.5459 1.05923,0.56385c0.40892,0 0.75028,-0.17938 1.0164,-0.53878c0.26934,-0.36099 0.40242,-0.79064 0.40242,-1.2938c0,-0.4538 -0.1065,-0.87017 -0.31844,-1.24712c-0.20995,-0.38044 -0.53631,-0.57188 -0.97595,-0.57895c-0.49364,-0.00515 -0.86301,0.17571 -1.1122,0.5442c-0.24579,0.36714 -0.36932,0.82538 -0.36917,1.37406zM32.46462,43.10572c-0.01699,-0.42346 0.07134,-0.80228 0.26552,-1.13779c0.19339,-0.33374 0.46217,-0.59346 0.80832,-0.77976c0.34765,-0.18628 0.72272,-0.28038 1.12622,-0.28038c0.42033,0 0.79042,0.08973 1.11902,0.26843c0.32969,0.17609 0.58117,0.42593 0.7628,0.74487c0.17856,0.32054 0.2666,0.67347 0.2666,1.05755c0.00013,0.32871 -0.07995,0.65743 -0.23798,0.98641c-0.15569,0.32642 -0.40516,0.59799 -0.74671,0.8132c-0.33824,0.21482 -0.75738,0.32395 -1.25256,0.32395h-0.00638c-0.41705,-0.01128 -0.78271,-0.09898 -1.09304,-0.25864c-0.31007,-0.16225 -0.55094,-0.39175 -0.72402,-0.68882c-0.17336,-0.29666 -0.27026,-0.64681 -0.28777,-1.04902zM30.44098,45.03256v-3.75016h-0.60769v-0.31694h0.60769c0.14857,-0.91469 0.39932,-1.5443 0.7453,-1.88253c0.34751,-0.33886 0.73548,-0.48306 1.16577,-0.43338c-0.0189,0.11936 -0.03633,0.28865 -0.05534,0.50954c0.01399,0.03462 0.01901,0.08844 0.01901,0.16935l-0.05552,0.03531c-0.043,-0.02484 -0.09127,-0.04684 -0.14769,-0.07309c-0.05626,-0.02621 -0.1112,-0.04313 -0.16111,-0.04968c-0.0502,-0.00977 -0.11092,-0.0152 -0.18341,-0.0152c-0.48973,0 -0.74546,0.30143 -0.7709,0.90006c0.00589,0.10921 0.02585,0.24576 0.06148,0.41714c0.03455,0.17064 0.06449,0.31174 0.08135,0.42248h0.9143c0,0 -0.01199,0.05817 -0.03489,0.17245c0.02291,0.06698 0.03472,0.11377 0.03472,0.14449h-0.89683v3.75016c-0.08226,-0.0102 -0.15155,-0.01848 -0.20426,-0.02053c-0.05566,-0.00271 -0.11266,-0.00708 -0.17987,-0.01218c-0.05404,0.0051 -0.10191,0.00947 -0.14357,0.01218c-0.04027,0.00205 -0.10512,0.01033 -0.18854,0.02053zM23.3239,43.10571c0.00676,0.60614 0.12385,1.03544 0.35802,1.28732c0.23257,0.25115 0.51984,0.38207 0.86327,0.39446c0.39377,0.01625 0.71296,-0.15099 0.95814,-0.50686c0.24438,-0.35225 0.36568,-0.81357 0.36568,-1.38561c0.00017,-0.18807 -0.01823,-0.36648 -0.05077,-0.53987c-0.03,-0.1723 -0.09467,-0.34635 -0.18542,-0.51704c-0.09345,-0.17471 -0.21847,-0.30996 -0.37689,-0.413c-0.15649,-0.10131 -0.35463,-0.15369 -0.59206,-0.15369c-0.89315,-0.02176 -1.34013,0.5898 -1.33996,1.83429zM22.53724,43.04626c0.00646,-0.67848 0.20039,-1.20568 0.57907,-1.57689c0.37774,-0.37368 0.82792,-0.55586 1.3468,-0.545c0.59678,0 1.06716,0.26855 1.41412,0.80665l0.00018,-3.08147c0.10007,0 0.22881,0.01223 0.38361,0.03461c0.12024,-0.02238 0.23077,-0.03461 0.33081,-0.03461l0.00012,6.38302c-0.08201,-0.0102 -0.15173,-0.01849 -0.20511,-0.02054c-0.05355,-0.00271 -0.11354,-0.00707 -0.17887,-0.01218c-0.05616,0.00511 -0.10602,0.00947 -0.15156,0.01218c-0.04765,0.00205 -0.10749,0.01034 -0.17919,0.02054l0.00018,-0.8299c-0.19951,0.29814 -0.4173,0.52424 -0.66242,0.67417c-0.24505,0.14986 -0.53657,0.22536 -0.87736,0.22536c-0.62181,0 -1.07686,-0.19782 -1.37603,-0.59552c-0.29419,-0.39673 -0.43409,-0.8828 -0.42436,-1.46042zM21.22645,42.66446c0,-0.98439 -0.37234,-1.48214 -1.12048,-1.49396c-0.40483,0 -0.71268,0.15089 -0.91722,0.44941c-0.20742,0.3005 -0.32851,0.64798 -0.364,1.04455zM18.03989,43.0123c0.01578,-0.70684 0.22491,-1.23501 0.61804,-1.58719c0.39183,-0.35043 0.87627,-0.51732 1.44803,-0.50075c0.70905,0.00722 1.19996,0.23393 1.46865,0.68434c0.269,0.4501 0.38391,0.91127 0.3495,1.38787c-0.57422,-0.01181 -1.60639,-0.01793 -3.09732,-0.01793c-0.04764,0.48842 0.07096,0.90075 0.35907,1.24413c0.2863,0.34132 0.69063,0.51392 1.21457,0.51392c0.41988,0 0.85445,-0.19675 1.30827,-0.58671l-0.01636,0.43206c-0.48642,0.34584 -0.99148,0.52016 -1.52369,0.52016c-0.69168,0 -1.219,-0.20393 -1.58236,-0.61087c-0.36446,-0.40938 -0.54653,-0.90021 -0.54642,-1.47903zM15.91713,43.79349v-2.50837h-0.55592c0.01184,-0.04095 0.01743,-0.08966 0.01743,-0.14477c0.00017,-0.08079 -0.00576,-0.13628 -0.01754,-0.17278h0.55603v-0.84123l0.71764,-0.26321v1.10444h0.95173c0,0.06982 -0.00664,0.12435 -0.02138,0.17278c0.01492,0.03265 0.02112,0.08165 0.02112,0.14477h-0.95146v2.32881c0,0.05726 -0.00566,0.10733 -0.02073,0.15371c0.01539,0.31265 0.06322,0.55924 0.14717,0.73935c0.08301,0.18354 0.25892,0.28404 0.52776,0.30622c0.16797,-0.02217 0.303,-0.04433 0.41141,-0.06719l0.00017,0.1945c-0.27212,0.10193 -0.54113,0.15468 -0.79785,0.15468c-0.20889,0 -0.37418,-0.02963 -0.49267,-0.08551c-0.21479,-0.10861 -0.35246,-0.25989 -0.40666,-0.45669c-0.05761,-0.19413 -0.08658,-0.44895 -0.08625,-0.75951zM12.23777,42.12977c0,-0.36129 0.14039,-0.65468 0.42354,-0.87492c0.28656,-0.2197 0.61988,-0.33048 1.0081,-0.33048c0.4314,0 0.77507,0.07074 1.03149,0.21355c-0.08919,0.19607 -0.15708,0.3939 -0.20698,0.5931h-0.08846c-0.1848,-0.362 -0.44861,-0.54285 -0.78768,-0.54285c-0.19281,0 -0.36123,0.04591 -0.51049,0.13873c-0.15162,0.09552 -0.23828,0.22866 -0.25982,0.40412c0.00017,0.06666 -0.00679,0.12478 -0.02008,0.17038c0.00616,0.20867 0.09079,0.37148 0.25227,0.4888c0.16195,0.11487 0.40793,0.22402 0.73799,0.32735c0.33158,0.10131 0.50298,0.154 0.51621,0.15982c0.41296,0.18656 0.61785,0.48025 0.61785,0.88281c0.00017,0.37257 -0.14572,0.68664 -0.43947,0.93783c-0.29158,0.24983 -0.69533,0.38719 -1.21099,0.40419c-0.15223,0 -0.34192,-0.02756 -0.56245,-0.07849c-0.22041,-0.05065 -0.4061,-0.11771 -0.55683,-0.20159c0.01918,-0.06261 0.04844,-0.15509 0.09036,-0.27268c0.04191,-0.11826 0.07291,-0.23529 0.0905,-0.34677h0.06123c0.13847,0.19647 0.30179,0.35151 0.49411,0.46072c0.19133,0.11172 0.37996,0.16576 0.56393,0.16576c0.25672,-0.00543 0.46327,-0.08554 0.61854,-0.23622c0.15425,-0.15495 0.23322,-0.32561 0.23322,-0.51937c0.00017,-0.23149 -0.07168,-0.40108 -0.2149,-0.51337c-0.14348,-0.11014 -0.35648,-0.19947 -0.63686,-0.26775c-0.32358,-0.08405 -0.5604,-0.16046 -0.71245,-0.22541c-0.1523,-0.06324 -0.28095,-0.17039 -0.38423,-0.31312c-0.10497,-0.14348 -0.15501,-0.35015 -0.14764,-0.62414zM7.43369,43.58479v-2.61932c0.05919,0.00816 0.11521,0.01193 0.16459,0.01358c0.04989,0.00242 0.10754,0.01014 0.16714,0.02276c0.08452,-0.01263 0.1512,-0.02034 0.20432,-0.02276c0.05486,-0.00165 0.11651,-0.00542 0.18138,-0.01358l0.00014,2.38946c0,0.37873 0.08438,0.69311 0.25324,0.94474c0.16924,0.25064 0.45134,0.3774 0.84784,0.3774c0.41685,0 0.70227,-0.13424 0.85815,-0.40443c0.15623,-0.26767 0.23234,-0.57869 0.23234,-0.93326l0.00012,-2.37391c0.07849,0 0.18837,0.01292 0.33245,0.03634c0.17954,-0.02342 0.30727,-0.03634 0.3847,-0.03634v4.05728c-0.1077,-0.01018 -0.18143,-0.01845 -0.22083,-0.02048c-0.03642,-0.0027 -0.08703,-0.00706 -0.14734,-0.01216c-0.05324,0.0051 -0.09779,0.00946 -0.13435,0.01216c-0.03423,0.00204 -0.10754,0.01031 -0.21475,0.02048l0.00012,-0.72712c-0.16062,0.26654 -0.35105,0.45946 -0.56799,0.58326c-0.21845,0.12517 -0.49606,0.19637 -0.83883,0.21333c-0.6009,0.02206 -1.00195,-0.14004 -1.20301,-0.48761c-0.19885,-0.34728 -0.29968,-0.68714 -0.29943,-1.01982zM4.5604,45.03257v-4.0671c0.0999,0 0.20423,0.01294 0.31238,0.03642c0.2156,-0.02348 0.3501,-0.03642 0.40582,-0.03642l0.00017,0.85231c0.10708,-0.21044 0.26747,-0.4121 0.48866,-0.60583c0.21748,-0.19131 0.4439,-0.28758 0.68374,-0.28758c0.10757,0 0.20081,0.00924 0.27913,0.02617l-0.11733,0.71153c-0.12458,-0.08394 -0.26655,-0.1251 -0.42146,-0.1251c-0.30454,0 -0.53255,0.10635 -0.6855,0.3222c-0.15341,0.21319 -0.2274,0.47699 -0.2274,0.78943l0.00017,2.38397c-0.10969,-0.03272 -0.23249,-0.0493 -0.36857,-0.0493c-0.12813,0 -0.24328,0.01658 -0.3498,0.0493zM2.01108,45.05048v-5.42565h-0.22316c-0.52625,0 -1.10072,0.03328 -1.72792,0.10404c0.00763,-0.07895 0.01071,-0.16077 0.01071,-0.24717c0.00017,-0.10194 -0.00319,-0.19306 -0.01071,-0.27331h4.62553c-0.00513,0.02445 -0.01013,0.05297 -0.0137,0.0873c-0.00381,0.03274 -0.00499,0.06805 -0.01001,0.10131c-0.00194,0.03231 -0.00502,0.06188 -0.01296,0.0847c0.01251,0.04551 0.01901,0.0864 0.02297,0.12237c0.00357,0.03746 0.00823,0.07889 0.01356,0.1248c-0.57194,-0.07076 -1.20224,-0.10404 -1.88578,-0.10404l0.00014,5.42565c-0.09717,-0.01157 -0.17114,-0.01971 -0.22661,-0.02065c-0.05213,-0.00314 -0.11139,-0.00747 -0.17672,-0.01508c-0.05559,0.00761 -0.10348,0.01194 -0.14506,0.01508c-0.04097,0.00094 -0.12144,0.00908 -0.24028,0.02065z" fill="#231f20" fill-opacity="1"></path></g></g></g></svg>